<svg width="191" height="75" viewBox="0 0 191 75" fill="none" xmlns="http://www.w3.org/2000/svg">
<g clip-path="url(#clip0_5_3)">
<mask id="mask0_5_3" style="mask-type:luminance" maskUnits="userSpaceOnUse" x="0" y="-21" width="191" height="96">
<path d="M191 -21H0V75H191V-21Z" fill="white"/>
</mask>
<g mask="url(#mask0_5_3)">
<path d="M35.1327 2.18407C35.7851 2.37447 36.2744 2.52075 36.7688 2.65744C41.5141 3.96065 45.1481 6.67931 47.8138 10.6133C49.7709 13.4928 51.2541 16.5726 51.9523 19.9698C52.0033 20.2089 52.1053 20.5165 52.294 20.6336C53.7109 21.5365 54.1593 22.908 54.5365 24.3967C55.3113 27.4228 54.516 30.2682 53.5783 33.0893C53.1807 34.2803 52.2837 35.2028 51.0656 35.7641C50.9382 35.8226 50.77 35.93 50.7394 36.0471C50.4081 37.1844 49.9289 38.3069 49.8118 39.4686C49.4753 42.7437 49.9086 45.9699 50.9075 49.118C51.3051 50.3821 51.4122 51.5829 50.4795 52.6566C50.1735 53.0129 49.7505 53.3057 49.3275 53.5302C42.6098 57.059 37.0492 61.9057 32.1154 67.4551C31.5446 68.0945 30.7953 68.358 29.9696 68.3874C28.6189 68.4363 27.2632 68.4313 25.9074 68.402C25.0155 68.3826 24.2509 68.0505 23.6699 67.3722C20.2907 63.4285 16.4476 59.9437 12.1459 56.9418C10.3671 55.6973 8.46083 54.6089 6.56989 53.5203C5.07141 52.6566 4.45469 51.5242 4.88793 49.8892C5.63207 47.1022 6.2386 44.2908 6.18253 41.4063C6.15195 39.9273 5.88181 38.4486 5.66264 36.9794C5.57091 36.3645 5.33135 35.8958 4.58721 35.5883C3.3028 35.0563 2.62491 33.885 2.21207 32.6501C1.41696 30.2635 1.0245 27.8327 1.5138 25.3142C1.77373 23.9719 1.8349 22.5175 2.94093 21.5609C3.9603 20.6823 4.1387 19.5598 4.45979 18.4421C5.63717 14.3764 7.70649 10.7548 10.6525 7.64079C13.2264 4.92223 16.4374 3.13082 20.1938 2.29623C20.9788 2.12067 21.045 1.92533 20.6373 1.24208C20.3264 0.724598 19.9849 0.217103 19.7198 -0.319865C19.3579 -1.05198 19.5312 -1.79873 19.7913 -2.52105C21.0042 -5.83514 22.2121 -9.15407 23.4506 -12.4584C24.0522 -14.0593 24.679 -15.6553 25.3366 -17.2367C26.1725 -19.2379 28.3642 -19.9163 29.9747 -18.6717C30.362 -18.3691 30.7291 -17.9396 30.8922 -17.5003C32.7474 -12.5024 34.5619 -7.4946 36.3865 -2.48692C36.8147 -1.31547 36.5293 -0.246574 35.8769 0.773457C35.6119 1.18837 35.4079 1.64236 35.1226 2.17418L35.1327 2.18407Z" fill="black"/>
<path d="M20.6115 1.36834C20.3516 0.92909 20.1885 0.55334 19.9388 0.245837C18.9093 -1.02819 18.9093 -2.33614 19.4902 -3.8151C20.693 -6.87529 21.7482 -9.98434 22.8899 -13.0642C23.5984 -14.9726 24.3526 -16.8712 25.107 -18.7601C25.7236 -20.3024 27.1713 -21.4201 29.1846 -20.8393C30.1784 -20.5513 30.8052 -19.8827 31.1314 -19.0188C33.0326 -13.9525 34.8878 -8.86669 36.7533 -3.78572C37.2783 -2.35078 37.1458 -0.998812 36.213 0.265322C35.9583 0.607047 35.8104 1.02671 35.5709 1.49533C35.9073 1.59286 36.1825 1.68079 36.468 1.74913C43.3284 3.44767 47.783 7.77684 50.7799 13.7168C51.8299 15.8009 52.6505 17.9486 53.1092 20.223C53.1551 20.4475 53.2723 20.7355 53.4558 20.8527C55.1684 21.9361 55.4995 23.6493 55.9073 25.3967C56.5801 28.2763 55.6934 30.951 54.9134 33.6355C54.5108 35.0265 53.5271 36.0758 52.1561 36.7543C52.0082 36.8274 51.8656 36.9787 51.7941 37.1252C51.1673 38.4333 50.8513 39.8047 50.8003 41.2496C50.683 44.4171 51.0858 47.5116 52.0031 50.5571C52.2427 51.3479 52.4975 52.1288 52.2886 53.0074C52.0388 54.0666 51.4475 54.8182 50.4894 55.3064C44.3324 58.4202 39.2458 62.8178 34.4598 67.5668C33.7564 68.2649 33.0938 69.0116 32.4822 69.7828C31.8705 70.554 31.0499 70.8761 30.107 70.92C28.6697 70.9835 27.2324 71.0323 25.8002 70.9737C24.9032 70.9395 24.0673 70.6223 23.4506 69.8999C19.8878 65.7317 15.8307 62.0565 11.2843 58.8888C9.43921 57.6051 7.49222 56.4289 5.49424 55.3698C4.03143 54.5936 3.29239 52.9146 3.69504 51.4943C4.66854 48.1021 5.30055 44.6515 5.02533 41.1177C4.92848 39.8439 4.60229 38.5847 4.34744 37.3253C4.30667 37.1302 4.14867 36.8666 3.98048 36.8032C2.1354 36.1539 1.34029 34.6799 0.825511 33.0497C0.0507869 30.6045 -0.255025 28.1202 0.259758 25.5576C0.540086 24.1716 0.677701 22.7024 1.80411 21.7214C2.74703 20.9014 2.9458 19.8862 3.23632 18.8319C4.44429 14.4783 6.62064 10.5979 9.75012 7.25461C12.4617 4.36028 15.8562 2.46166 19.8369 1.56853C20.0406 1.52451 20.2395 1.46606 20.6115 1.37328V1.36834ZM28.3639 -18.2915C28.2824 -18.2915 28.2008 -18.3013 28.1243 -18.3013C27.9663 -18.0182 27.7675 -17.7449 27.6503 -17.4472C26.7125 -15.0312 25.7746 -12.62 24.8726 -10.1942C23.95 -7.70997 23.1091 -5.19634 22.1406 -2.72662C21.9061 -2.1312 21.9214 -1.77484 22.3343 -1.28673C23.4046 -0.0275426 23.5218 1.50028 23.4199 3.03769C23.4046 3.27685 23.0478 3.58436 22.7726 3.70146C22.3547 3.87228 21.8756 3.9064 21.422 3.99907C17.9662 4.70685 14.8929 6.15169 12.4056 8.56276C9.82657 11.0617 8.02228 14.0536 6.73787 17.3287C6.10586 18.9345 5.47895 20.5499 5.42289 22.3071C5.41779 22.5072 5.09158 22.7854 4.85713 22.8684C3.97538 23.1856 3.50646 23.83 3.32807 24.645C2.90503 26.5875 2.66038 28.5643 3.08852 30.5264C3.31277 31.5611 3.76131 32.5568 4.19455 33.5329C4.33215 33.8355 4.75519 34.2309 5.04571 34.2259C6.11606 34.2113 6.42697 34.885 6.74297 35.6463C7.43615 37.3057 7.6655 39.0434 7.88976 40.8005C8.18028 43.0895 7.86429 45.3299 7.49222 47.5653C7.24246 49.0539 6.79394 50.5133 6.46265 51.997C6.3811 52.3582 6.3811 52.695 6.86529 52.944C11.901 55.5552 16.3506 58.9326 20.4637 62.7203C22.3292 64.4382 24.0163 66.3368 25.8256 68.1966C25.8256 68.0549 25.8512 67.928 25.8256 67.8158C25.1375 65.1215 24.4341 62.4323 23.7512 59.738C22.37 54.3008 20.9887 48.8635 19.6329 43.4216C19.2966 42.0792 18.6696 41.0397 17.3241 40.3417C15.8919 39.5998 14.5769 38.6481 13.2211 37.7695C11.8857 36.9007 10.8307 35.8416 10.5809 34.2212C10.5096 33.7624 10.3261 33.3133 10.27 32.8546C10.2241 32.4835 10.2955 32.098 10.3159 31.7222C10.7033 31.7514 11.1263 31.688 11.4627 31.8247C12.8134 32.381 14.1334 33.0009 15.4637 33.5963C17.8083 34.6458 20.1579 35.6952 22.5075 36.7396C23.104 37.0032 23.4708 37.4424 23.5881 38.0527C23.8889 39.5901 24.0621 41.1518 24.4851 42.6551C25.2089 45.2469 26.0601 47.8044 26.9062 50.3621C27.1508 51.099 27.5687 51.7871 27.9867 52.6462C28.532 51.3333 28.9858 50.2301 29.4445 49.1223C30.8257 45.7789 31.4882 42.2646 32.11 38.7359C32.2834 37.7598 32.7116 36.9886 33.7614 36.5932C34.8013 36.2028 35.8001 35.7099 36.8144 35.2607C39.526 34.0601 42.2325 32.8593 44.9441 31.6685C45.6014 31.3805 45.9175 31.5562 45.8258 32.2346C45.7238 32.9766 45.4129 33.6941 45.3008 34.4408C45.1581 35.4071 44.735 36.2369 43.9552 36.7933C41.9165 38.2576 39.8063 39.6242 37.7523 41.0641C37.4057 41.308 37.0438 41.6839 36.9317 42.0597C36.2233 44.5245 35.5709 46.999 34.9287 49.4834C33.5626 54.7352 32.2171 59.9918 30.8562 65.2484C30.6167 66.1808 30.3262 67.1032 30.0612 68.0305C30.8003 67.4008 31.3659 66.6785 32.0235 66.0489C33.8582 64.2918 35.6727 62.5103 37.6097 60.8558C39.4904 59.2451 41.4526 57.7076 43.4915 56.2824C45.2141 55.0769 47.0949 54.0714 48.9145 53.0025C49.4191 52.7048 49.6739 52.4216 49.414 51.8067C49.1592 51.1917 49.0624 50.523 48.8838 49.8788C48.2417 47.5311 47.9155 45.1345 47.8493 42.7235C47.7778 40.1464 48.308 37.6523 49.4394 35.3096C49.6076 34.9582 49.9899 34.5432 50.3518 34.4604C51.5189 34.187 52.0388 33.3963 52.3549 32.425C53.0787 30.2043 53.5067 27.9494 53.0634 25.6163C52.8289 24.3862 52.6352 23.1368 51.0092 22.8342C50.8666 22.8098 50.7035 22.5657 50.6628 22.3998C50.5149 21.7897 50.4181 21.1698 50.2957 20.5598C49.684 17.558 48.308 14.8443 46.6616 12.2722C44.7962 9.35333 42.3599 6.93741 39.0061 5.5902C37.2783 4.89231 35.4485 4.43842 33.6596 3.89186C33.2211 3.75517 32.8848 3.62817 32.7727 3.09615C32.4362 1.49533 32.9715 0.104202 33.8176 -1.21364C34.159 -1.74072 34.3069 -2.22872 34.0826 -2.84868C32.5687 -6.95343 31.0856 -11.063 29.577 -15.1678C29.1947 -16.2074 28.7665 -17.2324 28.3639 -18.2622V-18.2915Z" fill="url(#paint0_linear_5_3)"/>
<path d="M8.99595 27.2372C8.99595 25.3581 9.00615 23.4594 8.99085 21.5608C8.98575 20.9359 9.48016 20.7359 9.893 20.4576C11.3252 19.4863 12.8492 18.6226 14.1693 17.534C15.6984 16.2748 17.1254 14.8789 18.4557 13.4245C20.7697 10.901 22.8391 8.18735 24.5975 5.26859C25.5149 3.74087 26.3864 2.18882 27.2733 0.64151C27.3854 0.451113 27.4822 0.251123 27.6709 -0.10524C27.9207 0.24143 28.1398 0.456059 28.257 0.7148C29.1846 2.81836 30.1785 4.87821 31.4783 6.80611C33.094 9.19769 34.8166 11.4964 36.8095 13.6196C38.7464 15.6843 40.8106 17.6122 43.2163 19.174C44.1032 19.75 45.036 20.2721 45.9788 20.7554C46.514 21.0336 46.6771 21.4388 46.6924 21.9561C46.7076 22.5759 46.4987 22.737 45.9279 22.4392C44.1644 21.5168 42.3346 20.6724 40.6984 19.5743C35.7597 16.2651 32.1765 11.8235 29.4192 6.73282C28.94 5.84453 28.4558 4.96594 27.7983 4.09714V35.5052C22.0847 31.3077 16.0857 28.223 9.00105 27.2372H8.99595Z" fill="url(#paint1_linear_5_3)"/>
<path d="M46.4683 24.255C46.5396 25.202 46.6467 26.1441 46.6822 27.0908C46.7179 28.2086 46.6925 28.2086 45.5763 28.5844C45.2296 28.7015 44.8882 28.8186 44.5008 28.8674C44.9187 28.5941 45.3979 28.3744 45.7292 28.0279C45.9993 27.7449 46.2185 27.3203 46.2542 26.9395C46.3306 26.0512 46.2796 25.1532 46.2796 24.26C46.3459 24.26 46.407 24.255 46.4733 24.2501L46.4683 24.255Z" fill="url(#paint2_linear_5_3)"/>
</g>
</g>
<defs>
<linearGradient id="paint0_linear_5_3" x1="28.0734" y1="70.9835" x2="28.0734" y2="-21.0004" gradientUnits="userSpaceOnUse">
<stop stop-color="#015616"/>
<stop offset="0.03" stop-color="#015A14"/>
<stop offset="0.32" stop-color="#03800B"/>
<stop offset="0.58" stop-color="#049A05"/>
<stop offset="0.82" stop-color="#05AB01"/>
<stop offset="1" stop-color="#06B100"/>
</linearGradient>
<linearGradient id="paint1_linear_5_3" x1="27.8392" y1="35.5052" x2="27.8392" y2="-0.10524" gradientUnits="userSpaceOnUse">
<stop stop-color="#015616"/>
<stop offset="0.03" stop-color="#015A14"/>
<stop offset="0.32" stop-color="#03800B"/>
<stop offset="0.58" stop-color="#049A05"/>
<stop offset="0.82" stop-color="#05AB01"/>
<stop offset="1" stop-color="#06B100"/>
</linearGradient>
<linearGradient id="paint2_linear_5_3" x1="45.5915" y1="28.8674" x2="45.5915" y2="24.255" gradientUnits="userSpaceOnUse">
<stop stop-color="#015616"/>
<stop offset="0.03" stop-color="#015A14"/>
<stop offset="0.32" stop-color="#03800B"/>
<stop offset="0.58" stop-color="#049A05"/>
<stop offset="0.82" stop-color="#05AB01"/>
<stop offset="1" stop-color="#06B100"/>
</linearGradient>
<clipPath id="clip0_5_3">
<rect width="191" height="75" fill="white"/>
</clipPath>
</defs>
</svg>
