<svg width="57" height="92" viewBox="0 0 57 92" fill="none" xmlns="http://www.w3.org/2000/svg">
<path d="M35.1273 23.1794C35.7797 23.3698 36.269 23.5161 36.7634 23.6528C41.5087 24.956 45.1427 27.6747 47.8084 31.6086C49.7655 34.4882 51.2487 37.568 51.9469 40.9651C51.9979 41.2043 52.0999 41.5118 52.2886 41.6289C53.7055 42.5318 54.1539 43.9034 54.5311 45.392C55.3059 48.4181 54.5106 51.2636 53.5729 54.0846C53.1753 55.2756 52.2783 56.1982 51.0602 56.7594C50.9328 56.8179 50.7646 56.9253 50.734 57.0424C50.4027 58.1798 49.9235 59.3023 49.8064 60.4639C49.4699 63.739 49.9032 66.9652 50.9021 70.1133C51.2997 71.3775 51.4068 72.5782 50.4741 73.6519C50.1681 74.0082 49.7451 74.3011 49.3221 74.5256C42.6044 78.0543 37.0438 82.9011 32.11 88.4504C31.5392 89.0899 30.7899 89.3534 29.9642 89.3828C28.6135 89.4316 27.2578 89.4267 25.902 89.3974C25.0101 89.3779 24.2455 89.0459 23.6645 88.3676C20.2853 84.4238 16.4422 80.939 12.1405 77.9372C10.3617 76.6926 8.45539 75.6043 6.56445 74.5157C5.06597 73.6519 4.44925 72.5195 4.88249 70.8845C5.62663 68.0976 6.23316 65.2862 6.17709 62.4016C6.14651 60.9227 5.87637 59.4439 5.6572 57.9747C5.56547 57.3598 5.32591 56.8912 4.58177 56.5837C3.29736 56.0517 2.61947 54.8803 2.20663 53.6455C1.41152 51.2588 1.01906 48.8281 1.50836 46.3096C1.76829 44.9672 1.82946 43.5129 2.93549 42.5563C3.95486 41.6777 4.13326 40.5552 4.45435 39.4374C5.63173 35.3717 7.70105 31.7501 10.6471 28.6361C13.221 25.9176 16.432 24.1262 20.1884 23.2916C20.9734 23.116 21.0396 22.9207 20.6319 22.2374C20.321 21.7199 19.9795 21.2124 19.7144 20.6755C19.3525 19.9434 19.5258 19.1966 19.7859 18.4743C20.9988 15.1602 22.2067 11.8413 23.4452 8.53698C24.0468 6.93607 24.6736 5.34 25.3312 3.75861C26.1671 1.75749 28.3588 1.07905 29.9693 2.32366C30.3566 2.62628 30.7237 3.05577 30.8868 3.49506C32.742 8.49297 34.5565 13.5007 36.3811 18.5084C36.8093 19.6799 36.5239 20.7488 35.8715 21.7688C35.6065 22.1837 35.4025 22.6377 35.1172 23.1695L35.1273 23.1794Z" fill="black"/>
<path d="M20.6061 22.3637C20.3462 21.9244 20.1831 21.5487 19.9334 21.2412C18.9039 19.9672 18.9039 18.6592 19.4848 17.1802C20.6876 14.1201 21.7428 11.011 22.8845 7.93113C23.593 6.02277 24.3472 4.12412 25.1016 2.23525C25.7182 0.692919 27.1659 -0.424783 29.1792 0.156031C30.173 0.443999 30.7998 1.11267 31.126 1.97657C33.0272 7.04284 34.8824 12.1287 36.7479 17.2096C37.2729 18.6446 37.1404 19.9965 36.2076 21.2607C35.9529 21.6024 35.805 22.0221 35.5655 22.4907C35.9019 22.5882 36.1771 22.6761 36.4626 22.7445C43.323 24.443 47.7776 28.7722 50.7745 34.7122C51.8245 36.7962 52.6451 38.9439 53.1038 41.2184C53.1497 41.4428 53.2669 41.7308 53.4504 41.848C55.163 42.9315 55.4941 44.6446 55.9019 46.392C56.5747 49.2716 55.688 51.9464 54.908 54.6308C54.5054 56.0218 53.5217 57.0712 52.1507 57.7497C52.0028 57.8228 51.8602 57.9741 51.7887 58.1206C51.1619 59.4286 50.8459 60.8001 50.7949 62.2449C50.6776 65.4124 51.0804 68.5069 51.9977 71.5525C52.2373 72.3432 52.4921 73.1241 52.2832 74.0027C52.0334 75.0619 51.4421 75.8135 50.484 76.3017C44.327 79.4155 39.2404 83.8131 34.4544 88.5622C33.751 89.2602 33.0884 90.0069 32.4768 90.7782C31.8651 91.5494 31.0445 91.8714 30.1016 91.9153C28.6643 91.9788 27.227 92.0277 25.7948 91.969C24.8978 91.9348 24.0619 91.6176 23.4452 90.8953C19.8824 86.727 15.8253 83.0518 11.2789 79.8841C9.43378 78.6004 7.48679 77.4242 5.48881 76.3651C4.026 75.589 3.28696 73.9099 3.68961 72.4896C4.66311 69.0975 5.29512 65.6468 5.0199 62.1131C4.92305 60.8392 4.59686 59.58 4.34201 58.3207C4.30124 58.1255 4.14324 57.8619 3.97505 57.7985C2.12997 57.1493 1.33486 55.6753 0.820079 54.0451C0.0453548 51.5998 -0.260457 49.1155 0.254326 46.553C0.534654 45.167 0.672269 43.6977 1.79868 42.7167C2.7416 41.8968 2.94037 40.8815 3.23089 39.8273C4.43886 35.4737 6.61521 31.5932 9.74469 28.25C12.4563 25.3556 15.8508 23.457 19.8315 22.5639C20.0352 22.5199 20.2341 22.4614 20.6061 22.3686V22.3637ZM28.3585 2.70381C28.277 2.70381 28.1954 2.69406 28.1189 2.69406C27.9609 2.97713 27.7621 3.25046 27.6449 3.5482C26.7071 5.9642 25.7692 8.37532 24.8672 10.8011C23.9446 13.2854 23.1037 15.799 22.1352 18.2687C21.9007 18.8641 21.916 19.2205 22.3289 19.7086C23.3992 20.9678 23.5164 22.4956 23.4145 24.033C23.3992 24.2722 23.0424 24.5797 22.7672 24.6968C22.3493 24.8676 21.8702 24.9017 21.4166 24.9944C17.9608 25.7022 14.8875 27.147 12.4002 29.5581C9.82114 32.057 8.01685 35.0489 6.73244 38.3241C6.10043 39.9298 5.47352 41.5453 5.41746 43.3025C5.41236 43.5026 5.08615 43.7808 4.8517 43.8638C3.96995 44.181 3.50103 44.8253 3.32264 45.6403C2.8996 47.5829 2.65495 49.5596 3.08309 51.5218C3.30734 52.5564 3.75588 53.5521 4.18912 54.5282C4.32672 54.8308 4.74976 55.2262 5.04028 55.2213C6.11063 55.2067 6.42154 55.8803 6.73754 56.6416C7.43072 58.3011 7.66007 60.0388 7.88433 61.7959C8.17485 64.0849 7.85886 66.3252 7.48679 68.5606C7.23703 70.0493 6.78851 71.5087 6.45722 72.9924C6.37567 73.3536 6.37567 73.6904 6.85986 73.9393C11.8956 76.5506 16.3452 79.928 20.4583 83.7156C22.3238 85.4335 24.0109 87.3321 25.8202 89.1919C25.8202 89.0503 25.8458 88.9234 25.8202 88.8111C25.1321 86.1169 24.4287 83.4277 23.7458 80.7333C22.3646 75.2961 20.9833 69.8589 19.6275 64.4169C19.2912 63.0745 18.6642 62.035 17.3187 61.337C15.8865 60.5951 14.5715 59.6434 13.2157 58.7648C11.8803 57.896 10.8253 56.8369 10.5755 55.2165C10.5042 54.7577 10.3207 54.3087 10.2646 53.8499C10.2187 53.4788 10.2901 53.0933 10.3105 52.7176C10.6979 52.7467 11.1209 52.6833 11.4573 52.82C12.808 53.3764 14.128 53.9962 15.4583 54.5917C17.8029 55.6412 20.1525 56.6906 22.5021 57.7349C23.0986 57.9985 23.4654 58.4378 23.5827 59.048C23.8835 60.5854 24.0567 62.1472 24.4797 63.6505C25.2035 66.2422 26.0547 68.7998 26.9008 71.3574C27.1454 72.0944 27.5633 72.7825 27.9813 73.6415C28.5266 72.3286 28.9804 71.2255 29.4391 70.1176C30.8203 66.7743 31.4828 63.26 32.1046 59.7313C32.278 58.7552 32.7062 57.984 33.756 57.5885C34.7959 57.1982 35.7947 56.7052 36.809 56.2561C39.5206 55.0554 42.2271 53.8547 44.9387 52.6638C45.596 52.3758 45.9121 52.5516 45.8204 53.23C45.7184 53.972 45.4075 54.6895 45.2954 55.4361C45.1527 56.4024 44.7296 57.2323 43.9498 57.7886C41.9111 59.253 39.8009 60.6196 37.7469 62.0595C37.4003 62.3034 37.0384 62.6792 36.9263 63.0551C36.2179 65.5198 35.5655 67.9944 34.9233 70.4787C33.5572 75.7305 32.2117 80.9871 30.8508 86.2438C30.6113 87.1762 30.3208 88.0986 30.0558 89.0258C30.7949 88.3962 31.3605 87.6739 32.0181 87.0442C33.8528 85.2871 35.6673 83.5056 37.6043 81.8511C39.485 80.2404 41.4472 78.703 43.4861 77.2777C45.2087 76.0722 47.0895 75.0668 48.9091 73.9979C49.4137 73.7001 49.6685 73.417 49.4086 72.8021C49.1538 72.1871 49.057 71.5183 48.8784 70.8742C48.2363 68.5264 47.9101 66.1299 47.8439 63.7188C47.7724 61.1418 48.3026 58.6476 49.434 56.3049C49.6022 55.9535 49.9845 55.5386 50.3464 55.4557C51.5135 55.1823 52.0334 54.3917 52.3495 53.4204C53.0733 51.1996 53.5013 48.9447 53.058 46.6116C52.8235 45.3816 52.6298 44.1321 51.0038 43.8295C50.8612 43.8051 50.6981 43.561 50.6574 43.3951C50.5095 42.7851 50.4127 42.1651 50.2903 41.5552C49.6786 38.5533 48.3026 35.8396 46.6562 33.2675C44.7908 30.3487 42.3545 27.9328 39.0007 26.5855C37.2729 25.8877 35.4431 25.4338 33.6542 24.8872C33.2157 24.7505 32.8794 24.6235 32.7673 24.0915C32.4308 22.4907 32.9661 21.0995 33.8122 19.7817C34.1536 19.2546 34.3015 18.7666 34.0772 18.1467C32.5633 14.0419 31.0802 9.93232 29.5716 5.82754C29.1893 4.78792 28.7611 3.76296 28.3585 2.7331V2.70381Z" fill="url(#paint0_linear_5_4)"/>
<path d="M8.99052 48.2325C8.99052 46.3534 9.00072 44.4548 8.98542 42.5562C8.98032 41.9313 9.47473 41.7313 9.88757 41.4529C11.3198 40.4817 12.8438 39.6179 14.1639 38.5293C15.693 37.2701 17.12 35.8743 18.4503 34.4198C20.7643 31.8963 22.8337 29.1827 24.5921 26.2639C25.5095 24.7362 26.381 23.1842 27.2679 21.6369C27.38 21.4465 27.4768 21.2465 27.6655 20.8901C27.9153 21.2368 28.1344 21.4514 28.2516 21.7101C29.1792 23.8137 30.1731 25.8736 31.4729 27.8015C33.0886 30.193 34.8112 32.4917 36.8041 34.615C38.741 36.6797 40.8052 38.6076 43.2109 40.1693C44.0978 40.7454 45.0306 41.2675 45.9734 41.7507C46.5086 42.029 46.6717 42.4341 46.687 42.9515C46.7022 43.5712 46.4933 43.7324 45.9225 43.4345C44.159 42.5121 42.3291 41.6678 40.6929 40.5696C35.7542 37.2605 32.1711 32.8188 29.4138 27.7282C28.9346 26.8399 28.4504 25.9613 27.7929 25.0925V56.5005C22.0793 52.3031 16.0803 49.2184 8.99562 48.2325H8.99052Z" fill="url(#paint1_linear_5_4)"/>
<path d="M27.6195 5.36469V18.8259C27.5685 18.8455 27.5227 18.865 27.4717 18.8846C26.8245 18.1037 26.1772 17.3226 25.535 16.5417C25.4891 16.488 25.4687 16.41 25.4177 16.3758C23.9905 15.346 24.383 14.1257 24.8978 12.7933C25.7796 10.5237 26.5492 8.21019 27.3596 5.91623C27.4259 5.73076 27.4411 5.53551 27.482 5.3403C27.5278 5.35005 27.5737 5.35494 27.6195 5.36469Z" fill="url(#paint2_linear_5_4)"/>
<path d="M46.4629 45.2504C46.5342 46.1973 46.6413 47.1394 46.6768 48.0862C46.7125 49.2039 46.6871 49.2039 45.5709 49.5798C45.2242 49.6969 44.8828 49.814 44.4954 49.8627C44.9133 49.5895 45.3925 49.3698 45.7238 49.0232C45.9939 48.7402 46.2131 48.3156 46.2488 47.9348C46.3252 47.0465 46.2742 46.1486 46.2742 45.2553C46.3405 45.2553 46.4016 45.2504 46.4679 45.2454L46.4629 45.2504Z" fill="url(#paint3_linear_5_4)"/>
<defs>
<linearGradient id="paint0_linear_5_4" x1="28.068" y1="91.9788" x2="28.068" y2="-0.0050276" gradientUnits="userSpaceOnUse">
<stop stop-color="#015616"/>
<stop offset="0.03" stop-color="#015A14"/>
<stop offset="0.32" stop-color="#03800B"/>
<stop offset="0.58" stop-color="#049A05"/>
<stop offset="0.82" stop-color="#05AB01"/>
<stop offset="1" stop-color="#06B100"/>
</linearGradient>
<linearGradient id="paint1_linear_5_4" x1="27.8338" y1="56.5005" x2="27.8338" y2="20.8901" gradientUnits="userSpaceOnUse">
<stop stop-color="#015616"/>
<stop offset="0.03" stop-color="#015A14"/>
<stop offset="0.32" stop-color="#03800B"/>
<stop offset="0.58" stop-color="#049A05"/>
<stop offset="0.82" stop-color="#05AB01"/>
<stop offset="1" stop-color="#06B100"/>
</linearGradient>
<linearGradient id="paint2_linear_5_4" x1="26.0191" y1="18.8846" x2="26.0191" y2="5.34518" gradientUnits="userSpaceOnUse">
<stop stop-color="#015616"/>
<stop offset="0.03" stop-color="#015A14"/>
<stop offset="0.32" stop-color="#03800B"/>
<stop offset="0.58" stop-color="#049A05"/>
<stop offset="0.82" stop-color="#05AB01"/>
<stop offset="1" stop-color="#06B100"/>
</linearGradient>
<linearGradient id="paint3_linear_5_4" x1="45.5861" y1="49.8627" x2="45.5861" y2="45.2504" gradientUnits="userSpaceOnUse">
<stop stop-color="#015616"/>
<stop offset="0.03" stop-color="#015A14"/>
<stop offset="0.32" stop-color="#03800B"/>
<stop offset="0.58" stop-color="#049A05"/>
<stop offset="0.82" stop-color="#05AB01"/>
<stop offset="1" stop-color="#06B100"/>
</linearGradient>
</defs>
</svg>
