<svg width="191" height="99" viewBox="0 0 191 99" fill="none" xmlns="http://www.w3.org/2000/svg">
<mask id="mask0_1_19" style="mask-type:luminance" maskUnits="userSpaceOnUse" x="0" y="3" width="191" height="93">
<path d="M191 3H0V96H191V3Z" fill="white"/>
</mask>
<g mask="url(#mask0_1_19)">
<path d="M35.1327 26.44C35.7851 26.6325 36.2744 26.7804 36.7688 26.9186C41.5141 28.2362 45.1481 30.9849 47.8138 34.9623C49.7709 37.8737 51.2541 40.9875 51.9523 44.4222C52.0033 44.664 52.1053 44.9749 52.294 45.0933C53.7109 46.0062 54.1593 47.3929 54.5365 48.898C55.3113 51.9575 54.516 54.8344 53.5783 57.6866C53.1807 58.8908 52.2837 59.8235 51.0656 60.391C50.9382 60.4501 50.77 60.5587 50.7394 60.6771C50.4081 61.827 49.9289 62.9619 49.8118 64.1364C49.4753 67.4477 49.9086 70.7095 50.9075 73.8924C51.3051 75.1705 51.4122 76.3845 50.4795 77.4701C50.1735 77.8303 49.7505 78.1264 49.3275 78.3534C42.6098 81.9211 37.0492 86.8214 32.1154 92.4321C31.5446 93.0786 30.7953 93.345 29.9696 93.3747C28.6189 93.4241 27.2632 93.4191 25.9074 93.3895C25.0155 93.3698 24.2509 93.0341 23.6699 92.3483C20.2907 88.361 16.4476 84.8377 12.1459 81.8027C10.3671 80.5444 8.46084 79.444 6.5699 78.3434C5.07142 77.4701 4.4547 76.3252 4.88794 74.6721C5.63208 71.8544 6.23861 69.0119 6.18254 66.0955C6.15196 64.6002 5.88182 63.1051 5.66265 61.6197C5.57092 60.998 5.33136 60.5242 4.58722 60.2133C3.30281 59.6754 2.62492 58.4911 2.21208 57.2426C1.41697 54.8296 1.02451 52.372 1.51381 49.8257C1.77374 48.4685 1.83491 46.9981 2.94094 46.0309C3.96031 45.1426 4.13871 44.0077 4.4598 42.8776C5.63718 38.767 7.7065 35.1054 10.6525 31.957C13.2264 29.2084 16.4374 27.3972 20.1938 26.5534C20.9788 26.3759 21.045 26.1784 20.6373 25.4876C20.3264 24.9644 19.9849 24.4513 19.7198 23.9084C19.3579 23.1682 19.5312 22.4132 19.7913 21.6829C21.0042 18.3322 22.2121 14.9766 23.4506 11.6358C24.0522 10.0172 24.679 8.4035 25.3366 6.80464C26.1725 4.78141 28.3642 4.09548 29.9747 5.35384C30.362 5.6598 30.7291 6.09404 30.8922 6.53818C32.7474 11.5913 34.5619 16.6544 36.3865 21.7174C36.8147 22.9018 36.5293 23.9825 35.8769 25.0138C35.6119 25.4333 35.4079 25.8923 35.1226 26.43L35.1327 26.44Z" fill="black"/>
<path d="M171.209 93.246C170.128 92.2838 168.992 91.203 167.774 90.2013C166.922 89.5006 166.673 88.7061 166.693 87.6401C166.76 83.337 166.713 79.034 166.745 74.7309C166.745 74.1091 166.587 73.9019 165.924 73.9216C164.415 73.971 162.901 73.9364 161.387 73.9414C161.168 73.9414 160.949 73.9612 160.643 73.9759C160.643 74.272 160.643 74.5286 160.643 74.7802C160.643 79.3449 160.638 83.9095 160.653 88.4741C160.653 88.9232 160.536 89.2588 160.195 89.5647C158.793 90.7985 157.412 92.0518 156.148 93.1867V55.7914C156.352 55.7815 156.566 55.7569 156.785 55.7569C161.341 55.7617 165.898 55.7767 170.455 55.7667C171.061 55.7667 171.266 55.9148 171.256 56.5316C171.224 59.6307 171.256 62.7346 171.224 65.8336C171.224 66.1395 171.061 66.5145 170.847 66.7415C169.694 67.9407 168.502 69.1054 167.331 70.2847C167.162 70.4526 167.009 70.6301 166.74 70.9114H171.209V93.2362V93.246ZM166.74 60.3264H160.694V69.357C161.588 69.4787 162.318 69.2583 162.886 68.6957C164.048 67.536 165.215 66.3813 166.373 65.2168C166.52 65.0637 166.718 64.8664 166.723 64.6887C166.755 63.2527 166.74 61.8167 166.74 60.3264Z" fill="url(#paint0_linear_1_19)"/>
<path d="M107.233 72.4413H102.773V67.9407H111.764C111.779 68.2023 111.8 68.4341 111.8 68.6661C111.81 74.2573 111.81 79.8482 111.83 85.4393C111.83 85.913 111.693 86.2486 111.346 86.5891C109.144 88.7505 106.968 90.9366 104.792 93.1177C104.623 93.2856 104.506 93.5076 104.353 93.7296C104.098 93.5076 103.976 93.4138 103.869 93.3053C101.575 91.0205 99.2717 88.7357 96.9933 86.4361C96.8099 86.2536 96.657 85.9525 96.657 85.7057C96.6417 75.856 96.6468 66.0063 96.657 56.1516C96.657 56.048 96.6774 55.9444 96.6978 55.7569C96.9577 55.7569 97.2024 55.7569 97.4419 55.7569C101.953 55.7617 106.463 55.7815 110.979 55.7569C111.621 55.7569 111.835 55.9148 111.815 56.5564C111.769 58.1256 111.805 59.6998 111.79 61.274C111.79 61.5206 111.759 61.8512 111.596 61.9944C110.154 63.312 108.686 64.5999 107.223 65.8977C107.264 65.9668 107.299 66.0409 107.34 66.11C107.33 65.8879 107.304 65.6659 107.304 65.4389C107.304 63.909 107.304 62.3793 107.304 60.8495C107.304 60.5682 107.355 60.2622 106.891 60.2622C105.026 60.2672 103.155 60.2622 101.224 60.2622C101.208 60.5534 101.188 60.7854 101.188 61.0172C101.188 68.6611 101.198 76.3051 101.188 83.954C101.188 84.4079 101.31 84.7385 101.657 85.0396C102.559 85.8241 103.446 86.6286 104.18 87.2849C105.087 86.4854 106.096 85.6169 107.08 84.7237C107.207 84.6103 107.264 84.3733 107.264 84.1958C107.279 80.3959 107.279 76.5962 107.279 72.7965C107.279 72.7126 107.253 72.6288 107.223 72.4363L107.233 72.4413Z" fill="url(#paint1_linear_1_19)"/>
<path d="M183.508 93.5526C182.177 92.3584 180.877 91.1887 179.64 90.0736C178.426 91.1542 177.157 92.2893 175.898 93.4144V55.8265C176.173 55.8117 176.413 55.787 176.657 55.787C179.699 55.787 182.749 55.7969 185.792 55.7772C186.285 55.7772 186.627 55.9203 186.969 56.2657C188.177 57.5043 189.426 58.7035 190.628 59.947C190.832 60.1591 190.985 60.5095 190.985 60.7958C191.005 69.0713 191.005 77.3518 190.985 85.6273C190.985 85.8791 190.877 86.1998 190.704 86.3775C188.381 88.7314 186.041 91.0605 183.7 93.3995C183.624 93.4735 183.538 93.5328 183.508 93.5574V93.5526ZM183.476 87.3397C184.257 86.639 185.144 85.8296 186.051 85.0451C186.423 84.7242 186.526 84.359 186.526 83.8904C186.509 80.1548 186.519 76.4192 186.526 72.6836C186.526 68.795 186.514 64.9064 186.536 61.0179C186.536 60.4652 186.413 60.2282 185.792 60.2677C184.959 60.322 184.124 60.2825 183.289 60.2825C182.35 60.2825 181.407 60.2825 180.444 60.2825C180.424 60.5391 180.399 60.707 180.399 60.8797C180.399 68.6371 180.399 76.3895 180.414 84.147C180.414 84.3493 180.444 84.6256 180.576 84.749C181.555 85.6521 182.559 86.5254 183.488 87.3495L183.476 87.3397Z" fill="url(#paint2_linear_1_19)"/>
<path d="M151.606 93.2123C150.108 91.8947 148.599 90.5871 147.126 89.2447C146.973 89.1065 146.978 88.7611 146.978 88.5095C146.963 84.4482 146.963 80.387 146.953 76.3257C146.953 76.0689 146.953 75.8124 146.953 75.5114H140.862C140.862 75.7778 140.862 76.0296 140.862 76.2812C140.862 80.3424 140.847 84.4037 140.862 88.465C140.862 88.9141 140.745 89.2497 140.398 89.5556C138.997 90.7844 137.615 92.0279 136.224 93.2665C136.255 93.3257 136.29 93.385 136.321 93.4442C136.321 93.2369 136.321 93.0296 136.321 92.8224C136.321 82.2078 136.321 71.5981 136.3 60.9835C136.3 60.4851 136.443 60.1297 136.805 59.7795C138.049 58.5753 139.251 57.3269 140.5 56.1327C140.724 55.9205 141.112 55.7625 141.428 55.7576C143.074 55.723 144.72 55.723 146.367 55.7576C146.683 55.7625 147.07 55.9205 147.294 56.1327C148.594 57.3763 149.863 58.6494 151.117 59.9324C151.311 60.1297 151.474 60.4556 151.474 60.7219C151.484 71.529 151.474 82.3411 151.474 93.148C151.474 93.2319 151.459 93.3208 151.448 93.4046C151.499 93.3355 151.55 93.2714 151.601 93.2024L151.606 93.2123ZM140.913 70.8975H146.907V60.3322H140.913V70.8975Z" fill="url(#paint3_linear_1_19)"/>
<path d="M61.6518 75.5008C61.6518 75.7919 61.6518 76.0485 61.6518 76.3051C61.6518 80.3664 61.6619 84.4326 61.6314 88.4939C61.6314 88.8393 61.4582 89.2736 61.2032 89.5104C59.8423 90.7837 58.4254 92.0075 57.0339 93.246C57.0799 93.3151 57.1309 93.3842 57.1768 93.4533C57.1615 93.2954 57.1308 93.1424 57.1308 92.9845C57.1308 82.2614 57.1258 71.5332 57.1411 60.8101C57.1411 60.5238 57.294 60.1736 57.4978 59.9613C58.7466 58.6685 60.0157 57.4002 61.3103 56.1467C61.5244 55.9444 61.8812 55.7767 62.1768 55.7717C63.8689 55.7322 65.561 55.7322 67.2533 55.7667C67.5437 55.7717 67.9005 55.9444 68.1094 56.1467C69.3582 57.3459 70.5561 58.5944 71.8047 59.7936C72.1718 60.1488 72.2991 60.514 72.2991 61.0026C72.2787 70.9214 72.2736 80.8352 72.2634 90.754C72.2634 91.6423 72.2634 92.5256 72.2634 93.5421C72.0442 93.3547 71.9271 93.2658 71.8251 93.1672C71.2747 92.6195 70.7241 92.0716 70.1789 91.5189C69.3888 90.7146 68.3033 90.0238 67.8953 89.0664C67.4979 88.1287 67.7832 86.9149 67.7832 85.8243C67.7832 82.6117 67.768 79.4042 67.7935 76.1917C67.7935 75.634 67.6711 75.4267 67.0493 75.4465C65.4693 75.4908 63.8893 75.4613 62.3143 75.4613C62.1155 75.4613 61.9219 75.486 61.6518 75.5008ZM61.6977 70.9016C61.9014 70.9164 62.0748 70.9412 62.2481 70.9412C63.8689 70.9412 65.4947 70.9164 67.1156 70.9559C67.6814 70.9707 67.7884 70.7684 67.7832 70.2749C67.763 67.1562 67.763 64.0324 67.7578 60.9138C67.7578 60.7263 67.7273 60.5338 67.7068 60.3216H61.6925V70.9016H61.6977Z" fill="url(#paint4_linear_1_19)"/>
<path d="M124.114 87.3591C125.026 86.5449 126.025 85.6913 126.963 84.7784C127.162 84.5859 127.203 84.1812 127.203 83.8801C127.203 74.8349 127.198 65.7944 127.192 56.749C127.192 56.4479 127.192 56.147 127.192 55.7966H131.678V93.266C130.495 92.2001 129.236 91.0702 128.008 89.9598C126.713 91.1441 125.424 92.3285 124.094 93.5473C124.027 93.493 123.885 93.3993 123.767 93.2809C121.484 91.0109 119.2 88.7458 116.938 86.456C116.734 86.2488 116.57 85.8985 116.57 85.6122C116.555 75.8464 116.56 66.0856 116.56 56.3197C116.56 56.1668 116.576 56.0137 116.586 55.7621C117.988 55.7621 119.379 55.7523 120.77 55.7768C120.882 55.7768 121.041 55.9643 121.081 56.0977C121.137 56.2802 121.096 56.4875 121.096 56.6849C121.096 65.7499 121.096 74.8151 121.086 83.8801C121.086 84.3687 121.188 84.7536 121.581 85.0893C122.473 85.854 123.334 86.6535 124.114 87.3542V87.3591Z" fill="url(#paint5_linear_1_19)"/>
<path d="M92.1259 93.2412C90.6632 91.9385 89.1902 90.6555 87.763 89.3181C87.5693 89.1356 87.5489 88.7211 87.5489 88.4102C87.5336 79.3648 87.5285 70.3194 87.5235 61.2789C87.5235 60.978 87.5235 60.6769 87.5235 60.3315H81.448C81.448 60.6376 81.448 60.9139 81.448 61.1903C81.4429 70.2553 81.4328 79.3204 81.4377 88.3904C81.4377 88.884 81.3205 89.259 80.9332 89.5944C79.5469 90.8034 78.181 92.0372 76.9373 93.1475V55.7669C77.1768 55.7571 77.401 55.7373 77.6202 55.7373C80.7141 55.7373 83.8028 55.7225 86.8914 55.7571C87.2432 55.7571 87.6763 55.9495 87.9261 56.1913C89.2003 57.4003 90.4388 58.6439 91.6519 59.9022C91.8712 60.1292 92.0444 60.4994 92.0444 60.8053C92.0597 71.5334 92.0545 82.2566 92.0444 92.9846C92.0444 93.1328 92.024 93.2758 92.0138 93.4239C92.0495 93.3598 92.0851 93.3005 92.1208 93.2364L92.1259 93.2412Z" fill="url(#paint6_linear_1_19)"/>
<path d="M20.6115 25.6154C20.3516 25.1713 20.1885 24.7914 19.9388 24.4805C18.9093 23.1924 18.9093 21.87 19.4902 20.3747C20.693 17.2807 21.7482 14.1373 22.8899 11.0234C23.5984 9.09396 24.3526 7.17434 25.107 5.2646C25.7236 3.70523 27.1713 2.57518 29.1846 3.16241C30.1784 3.45356 30.8052 4.12962 31.1314 5.00306C33.0326 10.1253 34.8878 15.2673 36.7533 20.4044C37.2783 21.8552 37.1458 23.2221 36.213 24.5002C35.9583 24.8457 35.8104 25.27 35.5709 25.7438C35.9073 25.8424 36.1825 25.9313 36.468 26.0004C43.3284 27.7177 47.783 32.0947 50.7799 38.1003C51.8299 40.2074 52.6505 42.3788 53.1092 44.6784C53.1551 44.9053 53.2723 45.1965 53.4558 45.315C55.1684 46.4104 55.4995 48.1425 55.9073 49.9092C56.5801 52.8206 55.6934 55.5249 54.9134 58.239C54.5108 59.6454 53.5271 60.7063 52.1561 61.3923C52.0082 61.4662 51.8656 61.6192 51.7941 61.7673C51.1673 63.0898 50.8513 64.4764 50.8003 65.9372C50.683 69.1397 51.0858 72.2684 52.0031 75.3476C52.2427 76.1471 52.4975 76.9366 52.2886 77.8249C52.0388 78.8958 51.4475 79.6557 50.4894 80.1493C44.3324 83.2975 39.2458 87.7437 34.4598 92.5452C33.7564 93.251 33.0938 94.0059 32.4822 94.7857C31.8705 95.5654 31.0499 95.891 30.107 95.9354C28.6697 95.9996 27.2324 96.049 25.8002 95.9897C24.9032 95.9551 24.0673 95.6344 23.4506 94.9041C19.8878 90.6898 15.8307 86.974 11.2843 83.7713C9.43922 82.4734 7.49223 81.2842 5.49425 80.2134C4.03144 79.4287 3.2924 77.7311 3.69505 76.2951C4.66855 72.8655 5.30056 69.3767 5.02534 65.8039C4.92849 64.516 4.6023 63.2429 4.34745 61.9696C4.30668 61.7723 4.14868 61.5058 3.98049 61.4417C2.13541 60.7853 1.3403 59.295 0.825519 57.6468C0.0507948 55.1745 -0.255017 52.6628 0.259766 50.0719C0.540094 48.6706 0.677709 47.1851 1.80412 46.1933C2.74704 45.3643 2.94581 44.3378 3.23633 43.2719C4.4443 38.8702 6.62065 34.9469 9.75013 31.5667C12.4617 28.6404 15.8562 26.7208 19.8369 25.8178C20.0406 25.7733 20.2395 25.7142 20.6115 25.6204V25.6154ZM28.3639 5.73834C28.2824 5.73834 28.2008 5.72848 28.1243 5.72848C27.9663 6.01468 27.7675 6.29103 27.6503 6.59205C26.7125 9.03474 25.7746 11.4725 24.8726 13.9251C23.95 16.4368 23.1091 18.9782 22.1406 21.4752C21.9061 22.0772 21.9214 22.4375 22.3343 22.931C23.4046 24.2041 23.5218 25.7488 23.4199 27.3032C23.4046 27.545 23.0478 27.8559 22.7726 27.9743C22.3547 28.147 21.8756 28.1815 21.422 28.2752C17.9662 28.9908 14.8929 30.4516 12.4056 32.8893C9.82658 35.4158 8.02229 38.4408 6.73788 41.7521C6.10587 43.3756 5.47896 45.0089 5.4229 46.7855C5.4178 46.9878 5.09159 47.2691 4.85714 47.353C3.97539 47.6737 3.50647 48.3252 3.32808 49.1492C2.90504 51.1132 2.66039 53.1118 3.08853 55.0956C3.31278 56.1417 3.76132 57.1484 4.19456 58.1353C4.33216 58.4412 4.7552 58.841 5.04572 58.836C6.11607 58.8212 6.42698 59.5023 6.74298 60.272C7.43616 61.9498 7.66551 63.7067 7.88977 65.4832C8.18029 67.7975 7.8643 70.0626 7.49223 72.3227C7.24247 73.8278 6.79395 75.3033 6.46266 76.8034C6.38111 77.1686 6.38111 77.5091 6.8653 77.7608C11.901 80.4009 16.3506 83.8156 20.4637 87.6451C22.3292 89.382 24.0163 91.3016 25.8256 93.1819C25.8256 93.0387 25.8512 92.9104 25.8256 92.7969C25.1375 90.0729 24.4341 87.354 23.7512 84.6299C22.37 79.1326 20.9887 73.6353 19.6329 68.1332C19.2966 66.776 18.6696 65.725 17.3241 65.0193C15.8919 64.2692 14.5769 63.307 13.2211 62.4187C11.8857 61.5403 10.8307 60.4695 10.5809 58.8312C10.5096 58.3673 10.3261 57.9133 10.27 57.4495C10.2241 57.0743 10.2955 56.6845 10.3159 56.3046C10.7033 56.3341 11.1263 56.27 11.4627 56.4082C12.8134 56.9707 14.1334 57.5974 15.4637 58.1994C17.8083 59.2605 20.1579 60.3215 22.5075 61.3774C23.104 61.6439 23.4708 62.088 23.5881 62.705C23.8889 64.2594 24.0621 65.8384 24.4851 67.3583C25.2089 69.9787 26.0601 72.5645 26.9062 75.1504C27.1508 75.8955 27.5687 76.5912 27.9867 77.4597C28.532 76.1323 28.9858 75.017 29.4445 73.8969C30.8257 70.5166 31.4882 66.9635 32.11 63.3958C32.2834 62.4089 32.7116 61.6292 33.7614 61.2294C34.8013 60.8347 35.8001 60.3363 36.8144 59.8822C39.526 58.6683 42.2325 57.4543 44.9441 56.2503C45.6014 55.9591 45.9175 56.1368 45.8258 56.8227C45.7238 57.5729 45.4129 58.2983 45.3008 59.0532C45.1581 60.0302 44.735 60.8692 43.9552 61.4317C41.9165 62.9122 39.8063 64.2939 37.7523 65.7497C37.4057 65.9963 37.0438 66.3763 36.9317 66.7563C36.2233 69.2483 35.5709 71.7502 34.9287 74.262C33.5626 79.5718 32.2171 84.8865 30.8562 90.2012C30.6167 91.1439 30.3262 92.0765 30.0612 93.014C30.8003 92.3774 31.3659 91.6471 32.0235 91.0105C33.8582 89.234 35.6727 87.4328 37.6097 85.76C39.4904 84.1315 41.4526 82.5771 43.4915 81.1361C45.2141 79.9173 47.0949 78.9007 48.9145 77.82C49.4191 77.519 49.6739 77.2327 49.414 76.611C49.1592 75.9892 49.0624 75.3131 48.8838 74.6618C48.2417 72.2881 47.9155 69.8651 47.8493 67.4274C47.7778 64.8219 48.308 62.3002 49.4394 59.9316C49.6076 59.5763 49.9899 59.1568 50.3518 59.073C51.5189 58.7966 52.0388 57.9972 52.3549 57.0152C53.0787 54.7699 53.5067 52.4901 53.0634 50.1312C52.8289 48.8876 52.6352 47.6243 51.0092 47.3184C50.8666 47.2937 50.7035 47.0469 50.6628 46.8792C50.5149 46.2624 50.4181 45.6356 50.2957 45.0189C49.684 41.9839 48.308 39.2402 46.6616 36.6397C44.7962 33.6886 42.3599 31.246 39.0061 29.8839C37.2783 29.1783 35.4485 28.7194 33.6596 28.1668C33.2211 28.0286 32.8848 27.9002 32.7727 27.3623C32.4362 25.7438 32.9715 24.3373 33.8176 23.0049C34.159 22.472 34.3069 21.9786 34.0826 21.3518C32.5687 17.2017 31.0856 13.0467 29.577 8.89657C29.1947 7.84547 28.7665 6.80919 28.3639 5.76795V5.73834Z" fill="url(#paint7_linear_1_19)"/>
<path d="M8.99597 51.7699C8.99597 49.87 9.00617 47.9504 8.99087 46.0308C8.98577 45.399 9.48018 45.1968 9.89302 44.9154C11.3252 43.9334 12.8492 43.0601 14.1693 41.9595C15.6984 40.6864 17.1254 39.2751 18.4557 37.8046C20.7697 35.2532 22.8391 32.5096 24.5975 29.5586C25.5149 28.014 26.3864 26.4448 27.2733 24.8804C27.3854 24.6879 27.4822 24.4857 27.6709 24.1254C27.9207 24.4759 28.1398 24.6929 28.257 24.9545C29.1846 27.0813 30.1785 29.1639 31.4783 31.1131C33.094 33.5311 34.8166 35.8552 36.8095 38.0019C38.7464 40.0894 40.8106 42.0386 43.2163 43.6176C44.1032 44.2 45.036 44.7279 45.9788 45.2165C46.514 45.4978 46.6771 45.9074 46.6924 46.4305C46.7076 47.0571 46.4987 47.22 45.9279 46.9189C44.1644 45.9863 42.3346 45.1326 40.6984 44.0223C35.7597 40.6766 32.1765 36.1859 29.4192 31.039C28.94 30.1409 28.4558 29.2526 27.7983 28.3742V60.1292C22.0847 55.8854 16.0857 52.7666 9.00107 51.7699H8.99597Z" fill="url(#paint8_linear_1_19)"/>
<path d="M27.6249 8.42847V22.0384C27.5739 22.0582 27.5281 22.0779 27.4771 22.0977C26.8299 21.3082 26.1826 20.5185 25.5404 19.729C25.4945 19.6747 25.4741 19.5958 25.4231 19.5612C23.9959 18.52 24.3884 17.2863 24.9032 15.9391C25.785 13.6445 26.5546 11.3054 27.365 8.9861C27.4313 8.79858 27.4465 8.60118 27.4874 8.40381C27.5332 8.41367 27.5791 8.41861 27.6249 8.42847Z" fill="url(#paint9_linear_1_19)"/>
<path d="M46.4683 48.7548C46.5396 49.7122 46.6467 50.6647 46.6822 51.6219C46.7179 52.752 46.6925 52.752 45.5763 53.132C45.2296 53.2504 44.8882 53.3688 44.5008 53.4181C44.9187 53.1418 45.3979 52.9197 45.7292 52.5693C45.9993 52.2832 46.2185 51.8539 46.2542 51.4689C46.3306 50.5708 46.2796 49.6629 46.2796 48.7598C46.3459 48.7598 46.407 48.7548 46.4733 48.7498L46.4683 48.7548Z" fill="url(#paint10_linear_1_19)"/>
</g>
<defs>
<linearGradient id="paint0_linear_1_19" x1="150.266" y1="87.502" x2="176.121" y2="60.7982" gradientUnits="userSpaceOnUse">
<stop offset="0.2" stop-color="#015616"/>
<stop offset="0.55" stop-color="#06B100"/>
<stop offset="0.84" stop-color="#015616"/>
</linearGradient>
<linearGradient id="paint1_linear_1_19" x1="92.6152" y1="82.4044" x2="115.062" y2="59.2257" gradientUnits="userSpaceOnUse">
<stop offset="0.2" stop-color="#015616"/>
<stop offset="0.55" stop-color="#06B100"/>
<stop offset="0.84" stop-color="#015616"/>
</linearGradient>
<linearGradient id="paint2_linear_1_19" x1="168.14" y1="85.8987" x2="192.061" y2="61.1918" gradientUnits="userSpaceOnUse">
<stop offset="0.2" stop-color="#015616"/>
<stop offset="0.55" stop-color="#06B100"/>
<stop offset="0.84" stop-color="#015616"/>
</linearGradient>
<linearGradient id="paint3_linear_1_19" x1="131.514" y1="88.7859" x2="155.47" y2="64.0433" gradientUnits="userSpaceOnUse">
<stop offset="0.2" stop-color="#015616"/>
<stop offset="0.55" stop-color="#06B100"/>
<stop offset="0.84" stop-color="#015616"/>
</linearGradient>
<linearGradient id="paint4_linear_1_19" x1="52.3755" y1="88.8" x2="76.3063" y2="64.0828" gradientUnits="userSpaceOnUse">
<stop offset="0.2" stop-color="#015616"/>
<stop offset="0.55" stop-color="#06B100"/>
<stop offset="0.84" stop-color="#015616"/>
</linearGradient>
<linearGradient id="paint5_linear_1_19" x1="114.257" y1="84.0776" x2="136.821" y2="60.7716" gradientUnits="userSpaceOnUse">
<stop offset="0.2" stop-color="#015616"/>
<stop offset="0.55" stop-color="#06B100"/>
<stop offset="0.84" stop-color="#015616"/>
</linearGradient>
<linearGradient id="paint6_linear_1_19" x1="71.1218" y1="87.5269" x2="94.9096" y2="62.9575" gradientUnits="userSpaceOnUse">
<stop offset="0.2" stop-color="#015616"/>
<stop offset="0.55" stop-color="#06B100"/>
<stop offset="0.84" stop-color="#015616"/>
</linearGradient>
<linearGradient id="paint7_linear_1_19" x1="28.0734" y1="95.9996" x2="28.0734" y2="2.99957" gradientUnits="userSpaceOnUse">
<stop stop-color="#015616"/>
<stop offset="0.03" stop-color="#015A14"/>
<stop offset="0.32" stop-color="#03800B"/>
<stop offset="0.58" stop-color="#049A05"/>
<stop offset="0.82" stop-color="#05AB01"/>
<stop offset="1" stop-color="#06B100"/>
</linearGradient>
<linearGradient id="paint8_linear_1_19" x1="27.8392" y1="60.1292" x2="27.8392" y2="24.1254" gradientUnits="userSpaceOnUse">
<stop stop-color="#015616"/>
<stop offset="0.03" stop-color="#015A14"/>
<stop offset="0.32" stop-color="#03800B"/>
<stop offset="0.58" stop-color="#049A05"/>
<stop offset="0.82" stop-color="#05AB01"/>
<stop offset="1" stop-color="#06B100"/>
</linearGradient>
<linearGradient id="paint9_linear_1_19" x1="26.0245" y1="22.0977" x2="26.0245" y2="8.40874" gradientUnits="userSpaceOnUse">
<stop stop-color="#015616"/>
<stop offset="0.03" stop-color="#015A14"/>
<stop offset="0.32" stop-color="#03800B"/>
<stop offset="0.58" stop-color="#049A05"/>
<stop offset="0.82" stop-color="#05AB01"/>
<stop offset="1" stop-color="#06B100"/>
</linearGradient>
<linearGradient id="paint10_linear_1_19" x1="45.5915" y1="53.4181" x2="45.5915" y2="48.7548" gradientUnits="userSpaceOnUse">
<stop stop-color="#015616"/>
<stop offset="0.03" stop-color="#015A14"/>
<stop offset="0.32" stop-color="#03800B"/>
<stop offset="0.58" stop-color="#049A05"/>
<stop offset="0.82" stop-color="#05AB01"/>
<stop offset="1" stop-color="#06B100"/>
</linearGradient>
</defs>
</svg>
